<svg xmlns="http://www.w3.org/2000/svg" width="574.26" height="920.13" viewBox="0 0 15193.53 24345.47" fill-rule="evenodd" image-rendering="optimizeQuality" shape-rendering="geometricPrecision" xmlns:v="https://vecta.io/nano"><style><![CDATA[.D{fill:#05a1e1}.E{fill:#0c00aa}.F{fill:#204b99}.G{image-rendering:optimizeQuality}.H{shape-rendering:geometricPrecision}]]></style><path d="M7108.72 12929.56l385.3-73.47c356.29-71.69 392.24-32.64 392.55-129.86l.42-1054.36c213.29-9.62 624.35-78.08 829.45-124.58 119.86-27.18 273.57-61.92 384.69-100.46 56.5-19.6 121.17-36.3 179.19-57.99l177.73-66.09c567.93-190.72 1324.98-661.8 1782.52-1096.68 390.23-370.9 581.6-594.4 883.9-1038.24 66.63-97.83 332.68-530.25 344.6-632.85l-9953.13 1.06c103.93 220.3 265.98 512.28 408.03 710.75 135.56 189.41 338.34 466.24 493.76 624.26 331.51 337.09 484.69 488.96 892.7 783.56 182.02 131.43 332.62 212.37 521.55 324.45 61.84 36.69 123.06 59.22 184.31 95.39 153.66 90.75 416.58 180.1 583.83 254.82 107.23 47.91 539.66 167.15 655.2 192.08 256.68 55.4 456.41 89.27 721.57 116.57 159.51 16.42 133-31.62 132.98 144.75l-1.15 1126.89z" fill="#ccc"/><path d="M5548.09 7425.23c-28.64 286.36-187.67 272.06-287.4 427.74-24.68 38.52-66.29 120.45-37.89 179.67 36.64-56.86 47.18-189.15 144.94-192.9-10.49 102.9-55.07 314.49 59.61 315.87-19.24-151.03-85.56-179.67 42.06-339.55 65.41-81.93 129.67-178.59 140.84-309.75 88.43 7.85 93.66 35.2 214.06 29.76 189.89-8.58 353.4-123.76 504.06-224.24 126.68-84.49 224.45-175.5 327.63-273.47l12.82-12.52L6950 6722.4c45.54-48.04 77.38-79.57 121.53-123.75 203.37-203.51 443.84-390.54 706.22-513.29 58.72-27.47 112.58-44.59 176.64-68.22 358.67-132.29 1123.9-161.01 1544.93-116l219.59 25.88c168.24 21.11 335.21 60.9 495.77 103.2 188.31 49.61 365.81 112.2 539.72 189.57 33.57 14.93 53.74 25.66 88.43 39.41 51.97 20.58 118.94 55.48 165.07 80.77 685.46 375.9 1198.04 883.54 1642.4 1514.79 61.1 86.81 122.22 226.62 160.86 320.81 269.12 656.09 356.61 1331.78 104.92 2014.8l-66.45 171.35c-187.16 456.82-583.73 927.23-946.51 1246.03-210.81 185.25-439.61 373.49-677.54 533.38-192.91 129.64-840.43 319.27-1086.58 367.58l-207.01 42.42c-162.48 38.05-662.7 142.11-814.77 157.72-46.06 4.73-58.47 14.73-94.5 21.02l-1037.59 178.24c-85.81 17.57-211.67 34.83-303.31 58.84-61.39 16.08-141.95 27.51-204.93 39.27l-606.63 123.95c-69.09 12.59-128.2 33.91-195.6 47.29-365.34 72.56-772.97 198.73-1125.94 330.09-473.63 176.25-1050.44 445.66-1270.75 914.19-29.99 63.78-41.1 109.84-63.36 183.29-37.79 124.74-27.98 335.55 3.73 455.22 32.89 124.07 60.11 241.45 147.45 334.4 71.78 76.39 181.76 151.86 278.83 203.57 170.74 90.97 334.94 148.43 517.16 210.88 238.03 81.57 540.01 140.78 785.91 188.4l622.44 103.73c134.74 20.3 304.64 47.08 442.1 54.57l-2.61-502.1c-344.84-26.74-954.45-106.41-1299.59-200.31-127.51-34.69-242.95-73.83-371.38-125.19-218.17-87.25-508.16-265.49-385.56-561.17 173.55-418.53 1141.38-790.76 1578.1-919.79l189-56.34c490.04-137.4 997.01-235.94 1508.53-242.61 149.06-1.95 304.33-37.91 441.5-56.59 299.8-40.83 561.93-99.54 851.84-152.75 57.43-10.55 130.03-35.57 195.41-47.54 62.4-11.41 139.5-35.5 201.88-51.8 60.97-15.93 129.92-38.74 190.62-53.77 176.92-43.82 399-116.89 568.42-185.98 121.27-49.46 236.04-84.55 357.16-141.82 54.69-25.85 117.96-51.63 172.25-74.78 55.94-23.86 113.91-54.85 169.92-83.39 214.71-109.41 441.02-230.2 633.43-365.88 197.53-139.3 381.16-271.91 556.76-442.05 87.7-84.98 163.84-162.08 246.48-253.15 296.81-327.05 588.72-794.28 724.21-1271.84 317.62-1119.52 30.16-2205.65-584.76-3145.99-192.46-294.3-434.02-560.54-692.42-806.13l-268.43-230.68c-324.28-262.18-700.78-485.26-1092.72-651.2-118.14-50.02-243.22-101.69-364.91-134.4l-394.33-105.19c-198.62-51.35-456.82-78.05-668.24-87.67-166.79-7.6-315.26-4.98-482.31 1.46-384.98 14.83-874.28 127.73-1233.09 264.36-120.93 46.04-242.26 84.44-356.13 144.63-56.64 29.95-112.28 51.96-165.77 79.59-56.84 29.36-105.94 58.91-165.5 88.51-50.29 24.99-105.81 55.29-157.04 88.74-8.54 5.58-27.45 16.53-36.02 22.69-126.97 91.23-82.94 89.11-282.28 157.31-30.57 10.46-75.27 11.62-108.22 18.9-176.47 39-309.17 54.5-461.94 165.54-96.32 70.01-169.43 173.28-209.88 290.25-77.68 224.63-232.99 435.49-375.7 623.01-108.74 142.9-92.24 263.96 109.18 274.55z" fill="#009746"/><path d="M7109.87 13851.61l-.35 2701.86c-73.66 47.09-1374.24 687.99-1520.98 762.07-84 42.41-468.59 224.8-499.89 258.43l2908.3 1.73c29.51-56.19 50.89-136.68 83.57-197.12 37.21-68.84 64.11-126.34 103.03-184.95 59.4-89.45 196.29-258.29 192.26-387.15-46.02-39.32-186.49-98.81-240.35-127.07-38.06-19.98-80.16-39.57-119.04-58.38-24.47-11.84-106.97-51.65-122.12-64.09-17.76-22.9-7.95-684.05-7.96-707.2l-2.49-2136.23c-68.3-5.75-312.44 39-393.8 51.05l-374.67 83.12c-1.25.8-3.79 2.46-5.51 3.93z" fill="#ccc"/><path d="M6627.22 5885.24c42.69-4.13 104.45-51.41 133.22-80.1 34.28-34.16 90.44-61 128.25-84.02 209.84-127.76 360.87-190.19 570.76-284.21 115.37-51.69 114.19-67.31 222.88-208.48 30.03-38.99 61.16-70.09 100.34-111.36 14.44-15.22 10.87-11.64 25.78-25.34l82.4-78.18c172.16-162.16 319.95-243.01 489.6-373.86 408.17-314.84 782.4-772.99 755.05-1397.17-11.21-255.81-147.19-788.93-275.96-1012.06l-143.65-228.4c-20.37-27.89-7.54-17.26-32.75-29.95-4.56 201.31 16.75 316.84-20.35 540.32-7.86 47.4-24.18 93.58-35.05 146.26-68.62 332.75-321.76 694.73-562.75 936.8-131.63 132.22-262.06 228.89-408.42 345.56-144.6 115.26-278.17 233.59-404.33 340.71-140.05 118.91-252.18 240.49-359.57 393.66-227.34 324.25-333.53 800.49-265.45 1209.82zm2379.14 10498.97l29.96 54.82 3.87 4.86 66.99 126.19c9.12 23.65 9.11 62.99 18.82 81.93l3.17-21.1 647.67-282.23c141.05-63.73 372.65-141.65 494.11-199.43l343.03-124.15c167.98-61.19 448.31-162.89 608.51-204.36 151.37-39.19 287.39-95.83 448.6-134.06l142.14-37.16c13.43-4.39 25.18-9.97 42.82-14.05l760.8-172.3c198.39-42.08 397.31-68.17 596.39-100.69 196.69-32.13 423.45-59.47 628.98-74.47 65.92-4.81 132.38-17.53 202.6-19.81 77.69-2.54 156.34-5.44 229.2-10.51 299.64-20.84 609.14-15.24 919.51-11.12-6.2-74.03-172.76-635.19-183.25-649.77l-443.5 41.11-436.06 53.85c-111.99 15.54-950.9 143.1-1036 172.79l-206.6 39.88c-131.96 24.44-262.38 63.68-401.35 90.27-150.29 28.76-721.19 189.46-857.35 234.2l-278.25 87.07c-422.74 145.11-898.38 319.74-1305.08 514.36-349.22 167.11-620.4 313.36-958 506.24-29.18 16.67-50.44 34.42-81.73 47.64zM0 15246.52c344.93.28 674.82-11.52 1008.94 16.17 324.56 26.89 610.26 40.95 938.86 94.65 70.6 11.53 150.57 18.36 219.07 33.32 60.48 13.2 153.17 31 213.97 39.28 137.19 18.7 689.45 135.04 849.33 184.72 38.24 11.88 68.2 11.74 107.78 22.11 24.07 6.3 25.23 9.24 42.36 14.34l261.49 71.37c60.53 16.85 134.07 37.32 192.11 59.13 63.82 23.99 135.66 35.22 196.84 58.38l386.5 130.22 186.69 65.91 922.73 364.85c243.42 106.51 465.62 202.6 710.37 321.87 131.39 64.03 103.06 60.71 306.04-43.31 35.44-18.16 24.83-5.98 35.41-33.92-34.73-41.76-588.32-374.31-645.43-405.32-107.45-58.36-237.86-150.22-354.24-170.98-66.22-11.81-139.28-37.75-211.17-51.97l-208.9-61.35c-275.57-87.26-521.46-179.27-732.85-325.47-50.66-35.04-97.59-73.15-144.67-117.85-106.16-100.79-20.63-43.93-164.1-98.16-140.13-52.97-285.94-92.09-399.05-135.14l-606.3-180.41c-40.54-9.04-64.42-17.54-100.28-25.99-227.65-53.66-527.26-139.41-749.9-174.63-68.4-10.83-155.01-37.91-222.4-46.82l-1018.46-165.2c-42.07-5.7-87.33-3.22-127.88-11.76-91.55-19.3-669.68-81.82-724.67-69.89l-132.57 459.98c-16.57 60.08-33.38 111.37-35.62 181.87z" class="D"/><path d="M12568.91 19515.85c-18.39-41.4-108.32-830.43-120.41-944.18-30.5 2.3-290.96 143.65-331.4 167.89l-333.89 174.97-1.54 2061.42c63.63-12.8 321.4-169.84 410.28-207.65l-.17-1362.55c.19-58.53-9.98-157.74 8.58-202.28 6.33 16.97 24.73 145.4 28.57 169.97l142.64 901.19c9.62 54.98 24.21 123.61 30.54 180.74l31.21 172.32c.62 1.4 1.78 4.19 3.09 6.02 40.45-8.56 95.69-46.26 137.63-66.82 44.79-21.95 94.66-51.91 130.63-70.32l57.98-425.93 58.11-424.26 58.33-425.74c9.36-76.69 45.18-382.62 64.8-425.19 10.19 507.1-1.66 1049.91 3.17 1559.28 41.6 4.79 255.88-121.13 301.36-145.4 34.49-18.4 76.47-36.82 102.04-58.51l1.66-2061.02c-56.59 19.45-129.79 64.34-182.32 93.56l-449.79 236.54c-51.1 25.05-33.92 40.52-39.48 105.08-13.82 160.57-37.61 334.02-55.64 492.24zm-6254.66 81.12c-475.71 66.15-407.51 503.27-407.51 850.18v423.33c0 312.43 9.01 479.32 180.08 659.8 129.11 136.21 388.95 242.52 632.82 207.61 224.93-32.2 383.11-206.47 397.37-435.18 16.49-264.35 3.03-569.87 3.03-838.63 0-254.8 10.17-479.54-174.82-664.05-148.61-148.24-388.43-236.79-630.97-203.06z" class="F"/><path d="M5280.58 4605.99c-.91 472.89 127.19 873.05 369.97 1248.68 41.33 63.94 185.72 261.24 241.11 295.4 35.59-8.59 82.43-51.96 114.77-70.88l-217.22-278.55c-386.98-584.58-470.08-1253.36-228.81-1914.99 100.59-275.85 310.02-588.63 527.3-785.62 233.74-211.91 463.58-408.91 716.63-604.59 285.08-220.44 557.42-473.36 756.49-774.93 148.88-225.54 283.3-489.57 339.01-762.14 51.23-250.67 62.65-346.36 58.34-602.66-.93-55.6-14.43-161.36-5.14-207.7 4.45 25.71 32.23 61.08 46.09 81.84 166.26 249.09 217.55 315.72 317.77 638.55 172.77 556.5 291.54 996.81 58.58 1581.06-64.64 162.11-183.51 363.97-301.78 503.08-190.18 223.69-382.33 402.24-629.33 572.99l-178.94 125.55c-250.52 198.48-439.54 357.17-636.44 616.89l-11.27 14.5c-55.39 68.77-138.14 188.67-163.51 268.53-66.21 208.38-125.15 433.84-127.75 681.53-2.91 278.16-3.6 303.58 53.22 555.03 11.08 49.02 27.62 118.09 55.84 147.86l129.49-21.87c1.56-36.81-188.11-438.03-46.12-1054.66 17.34-75.31 60.74-257.59 89.44-306.22 268.81-455.44 624.39-698.67 1013.28-977.14 559.23-400.45 1027.17-1031.09 1027.56-1755.08.2-374.29-98.4-717.72-215.37-1059.41-93.46-272.98-155.28-381.46-310.13-604.99-42.53-61.4-74.77-141.46-150.62-153.77-95.49-15.5-167.35 50.07-170.92 133.65-3.16 74.21 12.73 204.22 12.51 295.99-1.6 670.68-302.03 1227-769.69 1669.65-184.26 174.4-323.3 266.43-500.66 413.64a1523.9 1523.9 0 0 1-42.41 33.69c-142.38 109.07-313.79 270.24-450.26 388.55-420.85 364.85-769.63 950.79-771.03 1668.54z" fill="#ccc"/><path d="M4510.39 19304.15l.4 1967.39c31.53 13.75 430.52 115.12 461.97 111.11l-.25-1658.86c94.91 29.22 218.64 39.95 261.27 71.43 15.93 197.86-20.59 1615.22 9.68 1655.55 18.86 17.28 401.41 111.68 453.05 115.04l.98-2065.06c-227.67-48.1-492.76-127.25-737.46-181.26-46.43-10.25-101.37-23.82-146.97-37.11-50.48-14.71-103.06-23.22-150.35-36.58-44.33-12.53-105.86-33.96-151.83-35.22zm5897.7 67.73l-5.07 2067.03 645.76-204.47c229.74-87.62 349.69-183.19 448.86-405.3 109.5-245.25 157.17-840.48-280.21-854.71-202.36-6.59-282.94 61.17-360.94 64.66l-1.61-404.74c44.23-34.21 547.31-170 600.71-203.2l2.34-390.9c-45.65 3.8-93.09 23.35-136.83 37.64l-392.63 126.19-258.02 85.5c-48.55 16.01-88.42 26.4-130.88 40.41-36.58 12.07-102.15 28.48-131.48 41.89zm-7223.06 1329.27l612.77 265.82c266.47 94.36 441.06 103.67 504.87-261.52 43.23-247.39-30.3-512.46-169.2-700.96-95.16-129.14-218.47-224.25-362.87-298.19-37.47-19.18-115.85-45.71-146.8-71.95l-1.53-400.14c78.39 3.27 508.48 226.95 584.45 232.05l-.32-390.95-508.23-219.03c-88.03-34.01-173.53-72.51-255.33-109.26-42.49-19.09-229.24-102.91-256.76-106.62zm-2118.79-2921l.09 914.4c-.02 338.48 149.86 651.13 342.93 858.13 234.55 251.47 614.12 459.74 614.1-87.66l-.04-931.34c-.02-358.49-148.22-664.73-353.06-875.89-232.34-239.5-604.03-468-604.02 122.36zm6806.31 3138.72c-1.5-2.4-2.97-8.94-3.5-7.73l-17.91-137.87c-26.09-376.95-60.47-679.13-116.29-1060.28l-481.06 3.11c-1.48 84.98 235.59 1267.25 262.13 1443.58 8.93 59.35 102.51 267.97-50.39 287.86-59.8 7.77-79.95-18.55-117.3-27.76l-1.12 346.07c238.59 85.72 480.59 55.38 642.41-101.57 146.79-142.36 198.6-354.25 242.39-586.63l207.08-1040.9c11.73-67.34 68.98-286.54 64.25-338.19l-444.43 6.04c-48.18 5.19-42.21 60.94-56.6 170.46l-59.82 406.37c-13.65 72.7-14.78 139.24-26.49 211.63-10.55 65.24-15.23 137.52-20.26 208.24-5.37 75.56-19.83 137.1-23.09 217.57z" class="F"/><path d="M3808.99 23224.22c18.36 72.39-32.46 157.96-49.87 255.17-8.26 46.13-1.69 46.54-38.86 70.84-88.62 57.94-187.88 111.06-322.23 101.65 8.97-26.15 46.36-38.55 88.48-81.11 86.51-87.4 168.53-226.91 185.15-347.31 42.7-309.34-283.67-232.57-383.77-88.85-105.49-22.12-123.56 16.92-164.43 90.31-142.13 255.21-21.46 255.27-167.41 340.04-45.49 26.42-132.74 85.13-193 62.24-13.89-73.08 53.54-258.36 79.05-328.86 11.3-31.24 220.33-335.14 74.5-297.89-98.8 25.24-128.5 157.68-153.57 227.82-27.58 77.14-30.37 80.92-107.02 112.37-48.76 20.01-130.22 34.16-194.26 28.33 9.31-49.03 38.1-125.53 56.67-174.27 19.49-51.15 58.16-138.79 59.09-186.19-128.44 20.22-135.16 95.28-184.22 231.33-9.34 25.89-17.67 42.7-27.96 74.15-17.82 54.45-7.47 29.9-49.4 51.85-28.36 14.84-31.95 24.51-23.15 62.67 4.37 18.94 11.6-9.15 3.13 34.23-1.97 10.11-8.55 24.2-12.58 43.77-50.69-2.44-121.78 72.29-261.04 123.53-352.34 129.64-243.77-289.72-161.62-415.29 32.6-49.82 136.83-190.02 229.08-151.4 26.71 47.81-8.44 80.62-18.33 126.72 92.65 4.85 173.53-102.15 137.24-194.84-68.61-107.16-484.17 140.33-557.42 466.44-46.95 209.07 47.42 289.81 251.86 251.93 170.55-31.6 263.17-120.53 363.91-175.73-3.7 66.57-49.44 105.91-27.39 171.68 138.9 21.46 169.57-151.48 193.63-260.75 57.84-11.26 97.89-20.78 148.77-37.46 48.89-16.02 91.72-47.7 137.58-62.24-15.69 66.11-36.97 127.63-54.56 188.08-68.65 235.92-62.84 264.25 269.94 74.87 19.31-10.99 72.88-49.95 90.02-52.67 9.1 80.64 25.69 135.18 96.81 157.19 105.05 32.51 148.43-26.38 220.9-28.81 294.54-9.9 262.6-67.43 398.42-123.24 21.58 35.98-1.09 281.6 286.67 148.99 30.4-14.01 55.18-39.49 79.38-47.02 33.42-10.41 69.62-12.03 102.69-22.79 80.19-26.1 165.58-76.39 181.68-80.06 10.78 121.71 37.73 191.91 177.55 132.68 60.8-25.76 113.25-65.04 155.35-106.77 6.46-6.41 11.45-12.34 20.64-21.52 18.83-18.83 9.62-12.07 28.97-25.47 16.96 39.21-39.48 173.75 18.82 204.23 123.14 18.22 323.67-192.83 374.6-198.12-15.59 38.03-52.64 121.53-29.35 157.55 64.56 26.35 118.01-33.21 139.21-79.73 29.52-64.81 28.81-79.31 42.68-135.66 26.66-108.3 92.14-8.38 297.22-147.63-3.01 63.73-121.24 341.62-84.38 383.42 44.25 49.34 331.81-134.06 386.31-170.23 19.32-12.82 31.81-16.86 38.34-43.7-59.19.86-192.86 138.8-296.31 120.25-15.45-73.62 52.91-266.2 77.61-332.61 31.45-84.58 142.83-189.22 121.2-298.49-126.61-33.06-177.17 163.03-198.45 222.4-28.05 78.26-26.99 81.26-103.35 114.67-54.6 23.9-126.25 31.55-196.14 32.55 12.2-113.64 113.44-279.74 114.46-360.37-134.79.34-153.51 148.78-207.49 285.19-38.06 96.17-14.84 33.81-80.5 89.04-5.01 97.13 53.62 69.45-99.2 179.66-28.37 20.46-159.71 121.18-200 77.25-44.87-42.36 101.04-382.07 133.24-431.68 27.3-42.06 54.32-31.24 53.33-96.4-2.88-188.29-534.26-103.58-661.74 344.37-14.82 52.11-6.16 62.11-59.51 91.34-34.53 18.92-164.3 89.7-206.37 72.3 44.85-62.85 88.24-95.62 121.62-173.3 134.27-312.43-54.34-401.63-272.17-238.75-29.5 22.06-52.55 53.21-80.51 74.73 14.73-116.48 68.59-148.18 137.92-203.85 61.6-49.46 127.46-109.66 185.56-161.31 60.53-53.81 113.6-113.82 162.4-176.53 22.67-29.14 140.47-203.68 43.84-240.93-80.88-31.18-191.73 52.54-236.83 90.67-110.55 93.49-221.6 268.46-280.81 404.51-18.25 41.93-36.58 76.92-53.01 116.41-22.63 54.38-23.97 72.14-67.31 110.41z" class="E"/><path d="M13907.49 18406.49l-1.6-749.22c-94.95 55.08-253.19 205.05-371.38 288.05l-.93 2057.6c36.43-11.89 252.06-189.65 311.69-237.84 58.59-47.35 62.89-31.19 61.98-122.05l-.12-728.35c-.22-96.99-14.06-92.43 54.44-142.49 33.04-24.14 74.41-72.54 130.54-67.13 80.69 83.97-33.12 716.29 71.5 806.1l353.66-283.21c2.25-39.92-18.84-66.11-22-117.93-8.28-136.03-4.09-441.46-4.06-576.34.03-81.25 6.23-174.87-33.98-234.22-50.86-75.07-146.06-24.04-203.02-3.75 25.12-40.54 60.17-85.12 87.51-133.76 157.85-280.78 112.89-503.42 128.02-796.77 3.31-64.29 20.56-122.21 25.77-181.22-49.64 19.85-196.45 153.82-255.87 197.5-111.33 81.86-127.44 114.18-132.28 313.96-3.52 145.19 5.89 300.69-13.87 439.71-8 56.23-28.05 117.73-61.17 165.33-24.24 34.83-80.27 93.1-124.83 106.03z" class="F"/><path d="M8092.12 17686.78c.67 56.69-40.01 112.68-52.92 288.57-3.27 44.65-14.74 46.66-19.53 95.06-15.74 158.79 8.36 289.53 12.69 436.52 5.43 219.63 133.25 661.68 211.57 838.26 9.51-122.71-9.15-304.67-9.6-438.98-.84-252.24 27.88-577.52 101.69-806.81 18.76-58.28 55.22-89.85 88.75-139.34l64.14-105.92c14.03-23.84 5.73-1.43 20.17-37.52 60.42-150.94 53.34-174.08 182.12-268.06 91.16-66.53 170.31-131.58 242.24-214.85 71.2-82.44 128.63-169.83 165.31-283.53 32.13-99.56 43.14-193.04 41.1-295.08-.91-45.29-10.7-58.11-13.85-103.09-9.71-18.94-9.7-58.28-18.82-81.93l-66.99-126.19-3.87-4.86-29.96-54.82c-15.28-7.95-74.33-78.02-91.69-94.65-187.02-179.12-361.05-247.6-592.75-347.85-43.5-18.83-242.26-90.48-286.92-90.13l.43 523.1c40.18 32.21 238.65 47.87 376.56 172.67 171.95 155.59 89.29 425.97-37.02 591.96-93.38 122.73-140.35 216.23-203.84 346.23-30.98 63.44-49.27 133.98-79.01 201.24z" fill="#009746"/><path d="M275.48 16125.68c112.07-.9 238.05-13.08 345.86-24.17 249.52-25.69 1162.36-3.52 1423.11 24.65l663.02 66.34c103.96 12.61 218.61 37.45 322.4 46.43 125.33 10.84 485.49 79.64 633.92 99.06 45.7 5.98 90.77 20.49 141.75 30.1l1356.01 288.87c79.39 15.47 229.51 68.64 308.62 66.8l-11.2-8.01c-15.75-9.6-3.93-2.8-17.42-9.91l-16.96-8.3c-8.79-4.25-3.81-2.24-16.87-8.08-254.9-113.89-791.7-313.89-1051.12-395.88-565.7-178.77-1260.3-358.1-1867.96-447.72-32.43-4.79-37.15-13.46-68.76-18.28l-255.94-35.31c-373.24-51.51-652.49-89.79-1046.82-113.76-222.01-13.5-523.78-45.49-754.2-28.74-1.47 2.37-2.9 3.33-3.47 7.61l-46.15 218.65c-12.11 80.69-35.02 175.2-37.82 249.65zm9411.71 604.6c10.1 5.95.75 4.95 21 3.96.41-.02 27.06-5.16 34.23-6.87l182.33-44.88c77.56-27.81 172.24-38.1 254-60.65 162.77-44.88 335.93-83.42 504.42-113.97 157.63-28.58 346.72-78.77 511.14-105.66 170.97-27.95 359.32-64.54 526.06-97.36l394.04-62.81c197.22-14.86 487.45-74.07 702.91-86.87 92.99-5.52 182.86-20.41 279.55-25.06 345.71-16.61 527.4-38.73 905.87-38.34 163.87.17 347.54-2.88 507.89 6.36 130.06 7.5 267.58 25.81 399.79 27.81-1.56-57.71-71.23-452.93-81.37-484.46-130.82-10.48-245.01 10.32-369.09 13.59-128.23 3.37-233.11 17.41-364.08 22.24-129.64 4.78-235.32 18.45-364.33 28.94-154.04 12.53-529.92 54.02-695.41 83.4l-251.63 36.74c-691.67 126.97-1303.65 250.86-1967.05 471.09-182.2 60.49-396.97 131.13-573.38 204.76l-278.81 109.75-278.08 118.29z" class="D"/><path d="M9199.57 19623.54l.55 397.35c72.74-9.04 246.62-58.9 302.81-52.81l.45 1653.66 415.9-76.77c60.62-13.96 47.76-15.29 47.72-149.55l1.07-1528.72 298.09-61.21c10.6-88.3 4.23-300.81 3.55-400.35-132.32 12.76-863.38 187.02-1070.14 218.4z" class="F"/><path d="M7785.25 5303.91l373.5-107.48c711-192.39 1160.88-112.84 1301.05-139 76.31-258.17 25-823.45-60.6-1089.23-36.61-113.64-142.17-443.55-205.53-528.37-13.44 22.69-14.83 220.72-54.65 347.99-62.72 200.42-146.52 368.32-283.59 530.71-61.21 72.51-117.25 139.78-198.93 215.61-187.57 174.16-273.75 216.7-458.53 355.02-154.63 115.74-247.12 201.26-367.3 343.62-24.75 29.33-34.04 31.08-45.42 71.13z" fill="#e31d25"/><path d="M871.48 8864.73c-1.16 537.94-15.19 1041.13-28.49 1574.8-5.45 218.55-23.95 421.4-29.04 634.97-4.52 189.78-29.71 481.84-27.32 644.58 17.46-15.46 46.04-159.77 50.41-195.63 25.99-213.33 112.93-570.86 143.88-838.46 36.72-317.46 116.71-783.33 134.7-1091.85 8.84-151.53 18.75-304.17 36.45-453.03 18.21-153.09 9.15-315.72 22.09-472.63 23.59-286.1-1.6-1104.58-7.81-1385.85l-401.55-2.76c5.87 95.93 41.62 255.56 48.77 375.27 7.95 133.02 21.76 251.11 31.76 388.94 18.86 259.92 26.97 545.51 26.15 821.65zm13481.35 2823.28c-1.18-190.13-18.82-358.4-25.84-545.7l-53.97-1667.98c-4.24-369.4-12.01-771.81 7.43-1134.89 12.04-225.03 29.92-582.25 61.59-800.94l35.42-258.83c-65.19-3.88-357.26-9.68-403.6 6.6-38.24 759.47-17.47 1577.61 56.21 2311.04 18.67 185.87 31.35 365.33 55.6 550.11 11.8 89.89 25.29 162.53 37.37 254.26l36.37 271.85c6.97 43.18 150.56 951.29 184.12 1002.42 1.22 1.86 3.47 4.47 4.53 5.99a70.5 70.5 0 0 0 4.77 6.07z" class="D"/><path d="M2203.88 18271.21l-.16 1871.14c54.02 37.21 384.47 218.55 413.92 223.94l-.74-1651.82c56.33 7.52 400.7 239.47 451.79 238.99l.94-318.18c.19-88.22.81-72.42-65.79-108.99l-800.68-446.8z" class="F"/><path d="M1622.78 7681.46c99.48 12.14 382.79 13.61 501.55 17.92 480.42 17.45 1151.3 120.08 1633.64 199.72 31.18 5.15 82.45 9.66 113.44 16.68 20.77 4.71-5.44-.79 24.4 7.48 10.24 2.83 17.61 4.33 28.01 6.6l378.29 76.73c95.9 14.75 427.74 99.18 537.06 123.59l416.61 91.08c-16.66-33.82-86.64-13.84-137.21-64.9-46.32-46.75-43.21-91.04-48.67-164.87-193.48-68.28-1286.24-342.93-1455.1-372.83l-355.53-76.88c-75.72-21.87-148.47-28.28-231.51-48.6l-938.09-189.01c-41.31 1.04-162.02 115.34-205.46 152.13l-194.56 161.05c-72.19 61.99-70.69 10.28-66.87 64.11zm6709.94 722.91c71.05 21.04 200.68 9.45 285.21 9.38 122.9-.1 160.32 7.98 265.07-28.47l1421.96-356.95c142.8-36.78 360.3-67.6 491.5-100.64l505.34-87.36c57.45-4.43 75.95-11.69 121.97-20.78l942.31-108.75c-36.35-58.76-164.58-204.26-220.45-274.07-37.88-47.34-51.52-29.89-111-17.94l-1374.64 298.19-266.96 69.37c-190.54 42.59-595.63 153.79-785.44 212.57-222.92 69.04-421.67 118.9-643.71 194.57-133.87 45.62-224.62 66.47-383.6 125.16z" class="D"/><path d="M7096.74 8411.7l820.98-.4c11.67-110.68-.07-753.24 1.77-978.1.17-20.64 2.19-45.03-8.25-55.3-26.34-20.04-716.22-8.05-813.84-7.97-12.23 40.92-12.71 1001.67-.66 1041.77z" fill="#ccc"/><path d="M8032.36 18506.93c-4.33-146.99-28.43-277.73-12.69-436.52 4.79-48.4 16.26-50.41 19.53-95.06 12.91-175.89 53.59-231.88 52.92-288.57-28.92 10.19-31.6 21.04-66.87 26.07-120.92 17.27-1273.81-16.01-1477.09 4.3 9.22 85.36 142.65 278.17 208.31 349.75 139.59 152.17 236.75 212.13 420.46 289.66 154.66 65.27 463.39 94.23 622 36.2l215.76-69.94c5.08 37.39-4.35 165.65 17.67 184.11z" class="D"/><path d="M8371.94 7289.7c-1.42-29.05-24.72-98.22-34.67-133.63-98.26-349.64-135.24-704.57 147.25-981.81 43.49-42.68 90.74-80.07 134.49-121.54-194.44-4.4-520.38 63.08-696.02 128.12-93.14 34.48-190.98 90.15-274.42 140.24-45.76 27.48-81.27 53.92-121.54 81.01-67.46 45.38-78.27 37.34-53.14 124.67 67.74 235.34 161.05 368.14 324.39 507.51 129.43 110.44 374.1 227.72 573.66 255.43z" fill="#e31d25"/><path d="M1335.86 22602.22c-240 47.41-211.45 133.91-301.91 209.25-50.13 41.76-88.83 71.84-129.68 124.4-261.75 336.74-284.24 841.76 91.16 784.83 139.61-21.17 238.22-90.81 327.99-179.82 378.55-375.31 407.73-1016.75 12.44-938.66zm12167.35 147.81l1.68-15.16c2.38-44.4 13.66-76.59 91.2-79.81 197.19-8.19 221.68 265.61 213.61 425.55-6.52 129.32-36.5 243.23-81.23 342.82-40.53 90.22-95.09 212.22-213.82 202.85-31.41-45.08-36.28-88.5-24.67-161.2 8.45-52.9 243.18-338.52 166.67-401.33-42.88-35.21-145.61 122.22-157.31 139.52-47.14 69.61-69.68 123.84-100.85 213.99-40.26 116.43 5.14 90.03-140.74 172.07-79.5 44.71-151.96 68.42-253.48 62.86 13.1-40.59 169.97-99.2 255.59-357.83 26.57-80.26 32.44-199.97-23.53-251.88-63.81-59.18-182.49-28.96-245.04 8.63-37.75 22.68-58.45 49.38-85.02 68.06-52.06 36.58-123.45-81.88-228.1 221.1-41.26 119.45-20.07 137.4-62.1 164.82-74.43 48.55-170.13 148.41-251.48 129.25-34.13-120.02 265.26-630.04 74.78-586.32-46.06 10.57-139.97 88.45-177.96 119.93-9 7.45-23.11 17.88-32.55 26.64-23.09 21.43-22.73 11.75-19.01 43.32 53.58-33.36 80.37-77.48 151.42-72.88 23.56 137.23-170.04 467.49-136.53 555.32 83.49 72.14 356.05-163.65 404.61-198.02 6.59 61.46 4.15 157.03 81.52 189.12 105.14 43.61 156.92-19.55 233.15-23.54 101.87-5.32 152.94 1.35 240.94-36.9 52.52-22.83 150.74-90.32 179.9-93.48-.13 107.04 4.24 196.43 131.98 158.91 71.58-21.03 131.77-75.57 177.02-134.95 82.76-108.6 171.62-263.45 206.67-421.16 38.68-174.04 59.42-383.38-50.39-516.97-76.03-92.48-257.75-96.92-327.29-3.66-22.07 29.61-39.97 82.66.36 110.33zm-4245.7 381.06c-24.66 21.37-67.34 33.7-99.04 49.95-420.16 215.27-323.07 554.71-41.08 569.64 280.04 14.82 529.29-242.65 453.51-463.79-26.72-77.97-93.55-116.48-140.44-172.74 4.84-4.81 4.66-5.07 14.06-11.91 47.14-34.26 188.82-77.82 267.17-214.98 31.37-54.91 43.39-149.82-2.92-203.15-84.54-97.33-438.82-101.89-550.79 98-101.3 180.84 58.56 292.77 99.53 348.98zm1653.29 0c-29.65 24.7-66.38 35.12-97.73 51.72-97.08 51.4-193.31 120.21-250.55 216.75-66.26 111.75-31.12 347.96 222.88 351.57 300.58 4.27 515.18-273.11 440.31-467.68-30.13-78.3-91.96-114.52-141.11-169.3 26.36-25.06 209.36-95.4 281.56-223.62 27.93-49.6 45.79-143.32 3.62-199.88-72.7-97.51-414.79-119.04-551.79 83.95-33.93 50.28-46.19 140.26-19.25 207.78 28.96 72.58 80.47 99.94 112.06 148.71z" class="E"/><path d="M792.79 16499.13c-13.94 91.63-41.67 191.07-44.76 251.98l386.68-59.63c557.43-71.2 1128.43-67.5 1692.02-66.96 222.66.21 481.73-5.64 701.11 9.2 130.34 8.81 574.33 37.52 678.3 27.54l-103.05-29.27c-231.33-43.92-469.8-91.18-702.24-118.33-47.29-5.52-96.25-3.73-141.31-8.9-38.39-4.41-61.01-15.71-110.72-19.01-45.33-3.01-90.99-2.49-135.82-5.47-40.72-2.7-67.82-10.81-115.31-14.41-497.32-37.73-995.58-21.06-1493.36-5.11-132.28 4.24-494.83 19.46-611.54 38.37zm10188.08 161.91c135.94 14.06 502.25-22.44 659.52-27.54 277.65-9 1716.84-20.24 1918.46 11.4 133.11 20.89 301.53 22.02 447.78 41.43l430.4 63.42c-2.32-50.88-29.33-206.51-44.82-239.5-48.63-49.26-1226.16-68.2-1447.8-67.38-606.82 2.23-953.25 44.08-1507.38 123.4-81.28 11.64-148.52 27.23-235.32 40.82z" class="D"/><path d="M1131.62 22765.22c42.24-14.25 196.26-91.98 229.53-23.6-33.53 22.78-60.92-31.45-199.76 37.29-125.12 61.96-15.56 114.79-116.87 102.86-24.27-2.86 18.94-5.29-29.3-4.4-112.15 155.97-170.04 268.61-168.9 507.72 1.78 377.14 389.54 339.38 572.99-95.1 50.48-119.55 106.36-361.31 66.26-501.68-61.83-216.39-333.17-129.47-353.95-23.09z" fill="#fff"/><path d="M6741.6 23224.22c9.4 37.58 22.67 10.01 3.74 65.73-44.04 129.68-145.59 445.39 69.42 460.38 119.84 8.36 156.85-69.6 280.21-93.33 48.05-9.25 95.48-29.46 138.13-47.6 38.16-16.24 102.7-45.12 120.24-80.38-20.2-10.69 28.52-23.25-31.05-1.1-2.4.9-186.12 118.35-242.57 94.24 226.53-208.55 240.83-609.34-67.24-461.81-110.01 52.68-124.02 100.36-170.37 137.33 3.53-16.82 35.03-106.44 43.41-121.46 24.71-44.31 686.58-535.62 508.57-666.59-124.7-91.75-347.22 184.58-404.94 262.91-124.69 169.21-170.52 383.27-247.55 451.68z" class="E"/><path d="M6377.07 20176.22l.07 939.8c-.02 119.48 8.83 233.49 132.62 247.19 162.18 17.95 142.22-139.15 142.29-264.13l.01-914.4c-.17-115.72-20.63-203.56-134.6-218.71-145-19.28-140.39 95.42-140.39 210.25zm-4919.22-2286.01c-36.99 42.76-20.62 705.98-20.62 821.27 0 184.53-34.03 435.98 68.04 559.21 197.63 238.63 146.52-202.54 146.52-330.61 0-136.74 7.73-752.75-3.8-835.78-22.53-162.26-154.22-255.6-190.14-214.09z" fill="#fff"/><path d="M14074.27 23586.83c-23.12-112.7 185.72-436.45 183.11-574.49-141.67-.45-177.62 192.81-223.11 310.6-31.85 82.46-143.79 336.86-118.87 411.82 126.29 21.31 407.71-302.24 468.02-349.26-6.05 36.87-31.58 94.39-46.95 131.2-18.29 43.84-34.56 91.22-51.8 134.08-101.9 253.27-209.96 623.02-476.66 623.28l-8.47.01c-124.7.12-134.79-67.07-177.8-84.66-106.88 152.62 128.3 206.04 315.23 102.68 213.82-118.23 303.58-302.54 400.14-513.68 71.36-156.04 130.08-327.88 186.7-490.75 20.28-58.35 54.57-99.48 79.91-148.57 17.41-33.71 82.96-154.07 10.42-153.96-118.03.19-150.68 196.03-192.34 268.64-55.66 96.99-246.56 324.56-347.53 333.06z" class="E"/><path d="M8876.53 17568.48c25.15 15.9 812.69 6.94 1033.18 6.06-15.94-16.32-648.43-341.71-735.01-371.39-55.64 103.01-121.25 201.22-212.97 285.53-9.41 8.65-82.05 72.33-85.2 79.8z" fill="#ccc"/><path d="M9288.97 23174.44c-382.38 119.48-363.83 514.53-78.48 515.25 221.2.56 353.47-228.67 208.18-411.28-21.23-26.68-90.68-116.16-129.7-103.97zm1649.18-1.02c-109.73 50.11-230.44 116.22-269.22 228.5-22.48 65.07-11.58 154.9 21.79 205.25 104.66 157.91 422.73 85.61 442.25-145.89 10.26-121.61-52.12-184.26-122.83-249.99-18.37-17.07-42.94-51.14-71.99-37.87z" fill="#fff"/><path d="M7082.68 6798.86c11.85 36.49 35.06 49.42 62.71 75.59 91.63 86.71 135.84 117.41 237.18 186.01 96.97 65.64 263.73 157.07 385.32 182.76-12.45-31.64-163.04-194.01-235.58-324.28-115.04-206.6-83.66-186.26-156.76-393.35-60.42 30.62-260.33 218.34-292.87 273.27z" class="D"/><path d="M8411.41 22767.02c30.7 20.91 127.59-40.85 169.74-50.18-6.01 48.92-70.07 197.24-89.46 253.54l-175.56 502.84c-15.31 47.33-88.33 229.76-67.09 254.88 36.07 31.37 103.46-30.49 123.46-55.22 26.87-33.22 41.4-104.16 51.91-150.44 20.74-91.27 63.09-219.78 98.89-317.57 28.8-78.67 225.83-569.09 226.68-598.57-107.06-.6-117.17 14.93-191.91 58.54-35.9 20.94-138.85 69.91-146.66 102.18z" class="E"/><path d="M10855.19 20387.88l-.85 550.98c63.75-2.36 165.32-45.98 202.72-84.52 49.63-51.14 61.63-137.42 62.71-229.1.9-75.69-.03-198.04-40.64-251.47-46.24-60.82-174.39-19.41-223.94 14.11zm-5882.91 2734.74c-15.65-59.61-114.03-61.86-179.84-39.89-56.07 18.73-108.69 69.63-142.03 110.43-158.29 193.74-207.98 541.99 29.09 385.7 47.96-31.61 91.39-85.67 118.87-135.44 60.89-110.31 71.92-252.64 173.91-320.8zm-1349.95-2582.34c232.58 124.32 246.29 45.31 250.04-118.53 1.67-72.94 2.91-157.6-11.67-223.15-12.66-56.93-42.76-111.65-82.47-144.6-27.53-22.85-119.73-66.71-154.04-70.97zm9388.35 2561.18c-114.78 31.49-155.95 129.93-182.03 252.47-37.3 175.3 47.54 301.41 133.67 262.49 151.97-68.65 322.56-590.19 48.36-514.96zm-9595.87-1.73c-120.23 29.23-163.63 123.09-187.82 236.9-35.21 165.65 23.33 314.3 120.4 283.88 150.68-47.23 335.25-585.89 67.42-520.78zm5963.24-21.5c90.68-10.8 319.36-177.46 237.13-344.48-59.78-121.45-354.77-71.2-376.25 85.31-17.73 129.15 72.52 204.84 139.12 259.17zm1688.95-403.19c-94.39 28.45-204.27 62.82-165.87 229.34 13.4 58.11 40.2 92.57 77.74 126.25 56.2 50.43 56.49 58.72 123.41 19.58 313.63-183.43 184.84-441.51-35.28-375.17z" fill="#fff"/><path d="M9980.79 22758.55c25.46 10.73 381.85-13.28 448.35-16.35-7.24 92.53-267.8 379.33-328.87 457.42-53.26 68.11-328.87 395.02-272.82 501.43 43.03 39.49 102.04-26.96 116.57-53.49 3.72-24.93-69.31-91.72 85.58-298.87 168.94-225.96 227.42-264.12 374.93-437.65 46.66-54.9 151.47-169.99 132.14-267.4-95.17-4.15-212.69 11.43-318.53 11.17-87.28-.21-241.73 11.14-237.35 103.74z" class="E"/><path d="M5501.88 8288.72L5874 8399.85c94.81 23.68 308.34 13.36 415.6 13.97 35.39.34 64.56 3.34 88.38-10.78l-715.72-238.83c-153.09-54.77-35.41 35.98-160.38 124.51z" class="D"/><g fill="#fff"><path d="M4078.62 23211.93c-199.37 63.47-208.59 438.6-24.83 417.64 106.06-12.1 244.92-487.71 24.83-417.64zm2935.59-1.51c-198.46 61.28-208.9 420.6-38.8 419.65 35.43-.2 37.15-5.71 55.27-28.7 39.79-50.49 68.66-117.62 83.64-179.45 21.81-90.04 37.93-254.13-100.11-211.5zm-95.66-116.24c31.03-32.38 84.41-67.44 122.42-100.82 40.5-35.56 79.93-74.63 116.18-112.43 36.82-38.39 212.45-219.97 144.21-296.66-115.87-130.2-385 442.02-382.81 509.91zm-2936.56 1.18c29.34-29.62 84.94-66.94 122.75-100.42 38.27-33.88 79.75-73.46 120.69-116.11 56.66-59.04 195.64-191.4 137.29-302.47-190.02-43.11-379.7 500.37-380.73 519z"/><path d="M5894.19 5915.81c-131.84-169.37-180.76-246.74-261.33-413.33-242.26-500.86-272.66-1042.38-89.29-1590.63 82.55-246.8 261.56-540.22 449.06-736.02 135.34-141.34 511.87-466.48 818.77-707.03 331.76-260.03 568.07-501.66 736.65-753.23 180.16-268.84 298.72-533.39 350.97-783.13 50.69-242.28 55.8-293.11 54.88-546.04l-.86-238.4 98.44 150.43c149.25 228.1 192 325.8 298.77 682.86 100.45 335.94 135.69 518.84 143.86 746.78 19.67 548.81-224.76 1060.82-719 1506.08-127.17 114.57-199.21 171.24-385.65 303.39-396.45 281.01-695.27 575.71-876.56 864.47-67.78 107.96-132.93 320.36-173.44 565.4-20.35 123.13-23.55 517.35-5 617.59 22.07 119.28 58.87 264.31 75.37 297.05l16.45 32.63-47.26 11.9c-40.86 10.29-322.36 105.49-362.26 122.52-10.44 4.45-42.36-30.27-122.56-133.3z" class="G H"/></g></svg>